<mxfile host="app.diagrams.net" modified="2023-11-20T11:28:56.755Z" agent="Mozilla/5.0 (X11; Linux x86_64) AppleWebKit/537.36 (KHTML, like Gecko) Chrome/118.0.0.0 Safari/537.36" etag="pZATHSHqxbzwlbUaJt72" version="22.1.3" type="device">
  <diagram name="Page-1" id="wYk7r6t1lV6fXOfw7ycI">
    <mxGraphModel dx="1434" dy="758" grid="1" gridSize="10" guides="1" tooltips="1" connect="1" arrows="1" fold="1" page="1" pageScale="1" pageWidth="827" pageHeight="1169" math="0" shadow="0">
      <root>
        <mxCell id="0" />
        <mxCell id="1" parent="0" />
        <mxCell id="nywqshWCEzEs_r2thPvB-20" style="edgeStyle=none;rounded=0;orthogonalLoop=1;jettySize=auto;html=1;exitX=0;exitY=0.5;exitDx=0;exitDy=0;" parent="1" source="nywqshWCEzEs_r2thPvB-1" target="nywqshWCEzEs_r2thPvB-19" edge="1">
          <mxGeometry relative="1" as="geometry" />
        </mxCell>
        <mxCell id="yX0rfWaj4uFUzMbaYhsn-1" style="edgeStyle=orthogonalEdgeStyle;rounded=0;orthogonalLoop=1;jettySize=auto;html=1;exitX=0.5;exitY=1;exitDx=0;exitDy=0;endArrow=ERoneToMany;endFill=0;" edge="1" parent="1" source="nywqshWCEzEs_r2thPvB-1" target="nywqshWCEzEs_r2thPvB-5">
          <mxGeometry relative="1" as="geometry" />
        </mxCell>
        <mxCell id="nywqshWCEzEs_r2thPvB-1" value="Staff" style="rounded=1;whiteSpace=wrap;html=1;arcSize=0;" parent="1" vertex="1">
          <mxGeometry x="291" y="215" width="100" height="50" as="geometry" />
        </mxCell>
        <mxCell id="nywqshWCEzEs_r2thPvB-28" style="edgeStyle=none;rounded=0;orthogonalLoop=1;jettySize=auto;html=1;exitX=0.5;exitY=0;exitDx=0;exitDy=0;" parent="1" source="nywqshWCEzEs_r2thPvB-2" target="nywqshWCEzEs_r2thPvB-25" edge="1">
          <mxGeometry relative="1" as="geometry" />
        </mxCell>
        <mxCell id="nywqshWCEzEs_r2thPvB-29" style="edgeStyle=none;rounded=0;orthogonalLoop=1;jettySize=auto;html=1;exitX=0.5;exitY=0;exitDx=0;exitDy=0;" parent="1" source="nywqshWCEzEs_r2thPvB-2" target="nywqshWCEzEs_r2thPvB-27" edge="1">
          <mxGeometry relative="1" as="geometry" />
        </mxCell>
        <mxCell id="nywqshWCEzEs_r2thPvB-2" value="Category" style="rounded=1;whiteSpace=wrap;html=1;arcSize=0;" parent="1" vertex="1">
          <mxGeometry x="470" y="215" width="100" height="50" as="geometry" />
        </mxCell>
        <mxCell id="nywqshWCEzEs_r2thPvB-8" style="edgeStyle=none;rounded=0;orthogonalLoop=1;jettySize=auto;html=1;exitX=0.5;exitY=0;exitDx=0;exitDy=0;entryX=0.5;entryY=1;entryDx=0;entryDy=0;endArrow=none;endFill=0;startArrow=ERoneToMany;startFill=0;" parent="1" source="nywqshWCEzEs_r2thPvB-3" target="nywqshWCEzEs_r2thPvB-2" edge="1">
          <mxGeometry relative="1" as="geometry" />
        </mxCell>
        <mxCell id="nywqshWCEzEs_r2thPvB-35" style="edgeStyle=none;rounded=0;orthogonalLoop=1;jettySize=auto;html=1;exitX=1;exitY=0.5;exitDx=0;exitDy=0;" parent="1" source="nywqshWCEzEs_r2thPvB-3" target="nywqshWCEzEs_r2thPvB-24" edge="1">
          <mxGeometry relative="1" as="geometry" />
        </mxCell>
        <mxCell id="nywqshWCEzEs_r2thPvB-36" style="edgeStyle=none;rounded=0;orthogonalLoop=1;jettySize=auto;html=1;exitX=1;exitY=0.5;exitDx=0;exitDy=0;entryX=0;entryY=0.5;entryDx=0;entryDy=0;" parent="1" source="nywqshWCEzEs_r2thPvB-3" target="nywqshWCEzEs_r2thPvB-30" edge="1">
          <mxGeometry relative="1" as="geometry" />
        </mxCell>
        <mxCell id="nywqshWCEzEs_r2thPvB-37" style="edgeStyle=none;rounded=0;orthogonalLoop=1;jettySize=auto;html=1;exitX=1;exitY=0.5;exitDx=0;exitDy=0;entryX=0;entryY=0.5;entryDx=0;entryDy=0;" parent="1" source="nywqshWCEzEs_r2thPvB-3" target="nywqshWCEzEs_r2thPvB-31" edge="1">
          <mxGeometry relative="1" as="geometry" />
        </mxCell>
        <mxCell id="nywqshWCEzEs_r2thPvB-38" style="edgeStyle=none;rounded=0;orthogonalLoop=1;jettySize=auto;html=1;exitX=1;exitY=0.5;exitDx=0;exitDy=0;" parent="1" source="nywqshWCEzEs_r2thPvB-3" target="nywqshWCEzEs_r2thPvB-32" edge="1">
          <mxGeometry relative="1" as="geometry" />
        </mxCell>
        <mxCell id="nywqshWCEzEs_r2thPvB-3" value="Item" style="rounded=1;whiteSpace=wrap;html=1;arcSize=0;" parent="1" vertex="1">
          <mxGeometry x="470" y="365" width="100" height="50" as="geometry" />
        </mxCell>
        <mxCell id="nywqshWCEzEs_r2thPvB-9" style="edgeStyle=none;rounded=0;orthogonalLoop=1;jettySize=auto;html=1;exitX=0.5;exitY=0;exitDx=0;exitDy=0;startArrow=ERoneToMany;startFill=0;endArrow=none;endFill=0;" parent="1" source="nywqshWCEzEs_r2thPvB-4" target="nywqshWCEzEs_r2thPvB-3" edge="1">
          <mxGeometry relative="1" as="geometry" />
        </mxCell>
        <mxCell id="nywqshWCEzEs_r2thPvB-42" style="edgeStyle=none;rounded=0;orthogonalLoop=1;jettySize=auto;html=1;exitX=1;exitY=0.5;exitDx=0;exitDy=0;" parent="1" source="nywqshWCEzEs_r2thPvB-4" target="nywqshWCEzEs_r2thPvB-23" edge="1">
          <mxGeometry relative="1" as="geometry" />
        </mxCell>
        <mxCell id="nywqshWCEzEs_r2thPvB-43" style="edgeStyle=none;rounded=0;orthogonalLoop=1;jettySize=auto;html=1;exitX=1;exitY=0.5;exitDx=0;exitDy=0;" parent="1" source="nywqshWCEzEs_r2thPvB-4" target="nywqshWCEzEs_r2thPvB-40" edge="1">
          <mxGeometry relative="1" as="geometry" />
        </mxCell>
        <mxCell id="nywqshWCEzEs_r2thPvB-46" style="edgeStyle=none;rounded=0;orthogonalLoop=1;jettySize=auto;html=1;exitX=1;exitY=0.5;exitDx=0;exitDy=0;entryX=0;entryY=0.5;entryDx=0;entryDy=0;" parent="1" source="nywqshWCEzEs_r2thPvB-4" target="nywqshWCEzEs_r2thPvB-41" edge="1">
          <mxGeometry relative="1" as="geometry" />
        </mxCell>
        <mxCell id="nywqshWCEzEs_r2thPvB-4" value="Variation" style="rounded=1;whiteSpace=wrap;html=1;arcSize=0;" parent="1" vertex="1">
          <mxGeometry x="470" y="576" width="100" height="50" as="geometry" />
        </mxCell>
        <mxCell id="nywqshWCEzEs_r2thPvB-71" style="edgeStyle=none;rounded=0;orthogonalLoop=1;jettySize=auto;html=1;exitX=0;exitY=0.5;exitDx=0;exitDy=0;" parent="1" source="nywqshWCEzEs_r2thPvB-5" target="nywqshWCEzEs_r2thPvB-21" edge="1">
          <mxGeometry relative="1" as="geometry" />
        </mxCell>
        <mxCell id="nywqshWCEzEs_r2thPvB-72" style="edgeStyle=none;rounded=0;orthogonalLoop=1;jettySize=auto;html=1;exitX=0;exitY=0.5;exitDx=0;exitDy=0;entryX=1;entryY=1;entryDx=0;entryDy=0;" parent="1" source="nywqshWCEzEs_r2thPvB-5" target="nywqshWCEzEs_r2thPvB-50" edge="1">
          <mxGeometry relative="1" as="geometry" />
        </mxCell>
        <mxCell id="nywqshWCEzEs_r2thPvB-73" style="edgeStyle=none;rounded=0;orthogonalLoop=1;jettySize=auto;html=1;exitX=0;exitY=0.5;exitDx=0;exitDy=0;" parent="1" source="nywqshWCEzEs_r2thPvB-5" target="nywqshWCEzEs_r2thPvB-57" edge="1">
          <mxGeometry relative="1" as="geometry" />
        </mxCell>
        <mxCell id="nywqshWCEzEs_r2thPvB-74" style="edgeStyle=none;rounded=0;orthogonalLoop=1;jettySize=auto;html=1;exitX=0;exitY=0.5;exitDx=0;exitDy=0;entryX=1;entryY=0.5;entryDx=0;entryDy=0;" parent="1" source="nywqshWCEzEs_r2thPvB-5" target="nywqshWCEzEs_r2thPvB-58" edge="1">
          <mxGeometry relative="1" as="geometry" />
        </mxCell>
        <mxCell id="nywqshWCEzEs_r2thPvB-75" style="edgeStyle=none;rounded=0;orthogonalLoop=1;jettySize=auto;html=1;exitX=0;exitY=0.5;exitDx=0;exitDy=0;entryX=1;entryY=0.5;entryDx=0;entryDy=0;" parent="1" source="nywqshWCEzEs_r2thPvB-5" target="nywqshWCEzEs_r2thPvB-59" edge="1">
          <mxGeometry relative="1" as="geometry" />
        </mxCell>
        <mxCell id="nywqshWCEzEs_r2thPvB-76" style="edgeStyle=none;rounded=0;orthogonalLoop=1;jettySize=auto;html=1;exitX=0;exitY=0.5;exitDx=0;exitDy=0;entryX=1;entryY=0.5;entryDx=0;entryDy=0;" parent="1" source="nywqshWCEzEs_r2thPvB-5" target="nywqshWCEzEs_r2thPvB-60" edge="1">
          <mxGeometry relative="1" as="geometry" />
        </mxCell>
        <mxCell id="nywqshWCEzEs_r2thPvB-77" style="edgeStyle=none;rounded=0;orthogonalLoop=1;jettySize=auto;html=1;exitX=0;exitY=0.5;exitDx=0;exitDy=0;entryX=1;entryY=0.5;entryDx=0;entryDy=0;" parent="1" source="nywqshWCEzEs_r2thPvB-5" target="nywqshWCEzEs_r2thPvB-63" edge="1">
          <mxGeometry relative="1" as="geometry" />
        </mxCell>
        <mxCell id="nywqshWCEzEs_r2thPvB-80" style="edgeStyle=none;rounded=0;orthogonalLoop=1;jettySize=auto;html=1;exitX=0;exitY=0.5;exitDx=0;exitDy=0;" parent="1" source="nywqshWCEzEs_r2thPvB-5" target="nywqshWCEzEs_r2thPvB-67" edge="1">
          <mxGeometry relative="1" as="geometry" />
        </mxCell>
        <mxCell id="nywqshWCEzEs_r2thPvB-5" value="Invoice" style="rounded=1;whiteSpace=wrap;html=1;arcSize=0;" parent="1" vertex="1">
          <mxGeometry x="291" y="365" width="100" height="50" as="geometry" />
        </mxCell>
        <mxCell id="nywqshWCEzEs_r2thPvB-11" style="edgeStyle=none;rounded=0;orthogonalLoop=1;jettySize=auto;html=1;exitX=0.5;exitY=0;exitDx=0;exitDy=0;startArrow=ERoneToMany;startFill=0;endArrow=none;endFill=0;" parent="1" source="nywqshWCEzEs_r2thPvB-6" target="nywqshWCEzEs_r2thPvB-5" edge="1">
          <mxGeometry relative="1" as="geometry" />
        </mxCell>
        <mxCell id="nywqshWCEzEs_r2thPvB-12" style="edgeStyle=none;rounded=0;orthogonalLoop=1;jettySize=auto;html=1;exitX=1;exitY=0.5;exitDx=0;exitDy=0;startArrow=ERoneToMany;startFill=0;endArrow=none;endFill=0;" parent="1" source="nywqshWCEzEs_r2thPvB-6" target="nywqshWCEzEs_r2thPvB-4" edge="1">
          <mxGeometry relative="1" as="geometry" />
        </mxCell>
        <mxCell id="nywqshWCEzEs_r2thPvB-54" style="edgeStyle=none;rounded=0;orthogonalLoop=1;jettySize=auto;html=1;exitX=0.5;exitY=1;exitDx=0;exitDy=0;" parent="1" source="nywqshWCEzEs_r2thPvB-6" target="nywqshWCEzEs_r2thPvB-49" edge="1">
          <mxGeometry relative="1" as="geometry" />
        </mxCell>
        <mxCell id="nywqshWCEzEs_r2thPvB-55" style="edgeStyle=none;rounded=0;orthogonalLoop=1;jettySize=auto;html=1;exitX=0.5;exitY=1;exitDx=0;exitDy=0;" parent="1" source="nywqshWCEzEs_r2thPvB-6" target="nywqshWCEzEs_r2thPvB-51" edge="1">
          <mxGeometry relative="1" as="geometry" />
        </mxCell>
        <mxCell id="nywqshWCEzEs_r2thPvB-56" style="edgeStyle=none;rounded=0;orthogonalLoop=1;jettySize=auto;html=1;exitX=0.5;exitY=1;exitDx=0;exitDy=0;" parent="1" source="nywqshWCEzEs_r2thPvB-6" target="nywqshWCEzEs_r2thPvB-52" edge="1">
          <mxGeometry relative="1" as="geometry" />
        </mxCell>
        <mxCell id="nywqshWCEzEs_r2thPvB-6" value="InvoiceItem" style="rounded=1;whiteSpace=wrap;html=1;arcSize=0;" parent="1" vertex="1">
          <mxGeometry x="291" y="576" width="100" height="50" as="geometry" />
        </mxCell>
        <mxCell id="nywqshWCEzEs_r2thPvB-13" value="mobile" style="ellipse;whiteSpace=wrap;html=1;" parent="1" vertex="1">
          <mxGeometry x="161" y="230" width="80" height="40" as="geometry" />
        </mxCell>
        <mxCell id="nywqshWCEzEs_r2thPvB-14" value="address" style="ellipse;whiteSpace=wrap;html=1;" parent="1" vertex="1">
          <mxGeometry x="151" y="190" width="80" height="40" as="geometry" />
        </mxCell>
        <mxCell id="nywqshWCEzEs_r2thPvB-15" value="image" style="ellipse;whiteSpace=wrap;html=1;" parent="1" vertex="1">
          <mxGeometry x="151" y="150" width="80" height="40" as="geometry" />
        </mxCell>
        <mxCell id="nywqshWCEzEs_r2thPvB-16" style="edgeStyle=none;rounded=0;orthogonalLoop=1;jettySize=auto;html=1;exitX=0;exitY=0.5;exitDx=0;exitDy=0;entryX=0.75;entryY=0.9;entryDx=0;entryDy=0;entryPerimeter=0;" parent="1" source="nywqshWCEzEs_r2thPvB-1" target="nywqshWCEzEs_r2thPvB-15" edge="1">
          <mxGeometry relative="1" as="geometry" />
        </mxCell>
        <mxCell id="nywqshWCEzEs_r2thPvB-17" style="edgeStyle=none;rounded=0;orthogonalLoop=1;jettySize=auto;html=1;exitX=0;exitY=0.5;exitDx=0;exitDy=0;entryX=0.975;entryY=0.7;entryDx=0;entryDy=0;entryPerimeter=0;" parent="1" source="nywqshWCEzEs_r2thPvB-1" target="nywqshWCEzEs_r2thPvB-14" edge="1">
          <mxGeometry relative="1" as="geometry" />
        </mxCell>
        <mxCell id="nywqshWCEzEs_r2thPvB-18" style="edgeStyle=none;rounded=0;orthogonalLoop=1;jettySize=auto;html=1;exitX=0;exitY=0.5;exitDx=0;exitDy=0;entryX=0.975;entryY=0.35;entryDx=0;entryDy=0;entryPerimeter=0;" parent="1" source="nywqshWCEzEs_r2thPvB-1" target="nywqshWCEzEs_r2thPvB-13" edge="1">
          <mxGeometry relative="1" as="geometry" />
        </mxCell>
        <mxCell id="nywqshWCEzEs_r2thPvB-19" value="&lt;u&gt;id&lt;/u&gt;" style="ellipse;whiteSpace=wrap;html=1;" parent="1" vertex="1">
          <mxGeometry x="221" y="135" width="80" height="40" as="geometry" />
        </mxCell>
        <mxCell id="nywqshWCEzEs_r2thPvB-21" value="&lt;u&gt;id&lt;/u&gt;" style="ellipse;whiteSpace=wrap;html=1;" parent="1" vertex="1">
          <mxGeometry x="181" y="280" width="80" height="40" as="geometry" />
        </mxCell>
        <mxCell id="nywqshWCEzEs_r2thPvB-22" value="&lt;u&gt;id&lt;/u&gt;" style="ellipse;whiteSpace=wrap;html=1;" parent="1" vertex="1">
          <mxGeometry x="361" y="671" width="80" height="40" as="geometry" />
        </mxCell>
        <mxCell id="nywqshWCEzEs_r2thPvB-23" value="&lt;u&gt;id&lt;/u&gt;" style="ellipse;whiteSpace=wrap;html=1;" parent="1" vertex="1">
          <mxGeometry x="610" y="536" width="80" height="40" as="geometry" />
        </mxCell>
        <mxCell id="nywqshWCEzEs_r2thPvB-24" value="&lt;u&gt;id&lt;/u&gt;" style="ellipse;whiteSpace=wrap;html=1;" parent="1" vertex="1">
          <mxGeometry x="600" y="265" width="80" height="40" as="geometry" />
        </mxCell>
        <mxCell id="nywqshWCEzEs_r2thPvB-25" value="&lt;u&gt;id&lt;/u&gt;" style="ellipse;whiteSpace=wrap;html=1;" parent="1" vertex="1">
          <mxGeometry x="440" y="135" width="80" height="40" as="geometry" />
        </mxCell>
        <mxCell id="nywqshWCEzEs_r2thPvB-27" value="name" style="ellipse;whiteSpace=wrap;html=1;" parent="1" vertex="1">
          <mxGeometry x="520" y="135" width="80" height="40" as="geometry" />
        </mxCell>
        <mxCell id="nywqshWCEzEs_r2thPvB-30" value="image" style="ellipse;whiteSpace=wrap;html=1;" parent="1" vertex="1">
          <mxGeometry x="640" y="300" width="80" height="40" as="geometry" />
        </mxCell>
        <mxCell id="nywqshWCEzEs_r2thPvB-31" value="name" style="ellipse;whiteSpace=wrap;html=1;" parent="1" vertex="1">
          <mxGeometry x="660" y="340" width="80" height="40" as="geometry" />
        </mxCell>
        <mxCell id="nywqshWCEzEs_r2thPvB-32" value="description" style="ellipse;whiteSpace=wrap;html=1;" parent="1" vertex="1">
          <mxGeometry x="650" y="380" width="80" height="40" as="geometry" />
        </mxCell>
        <mxCell id="nywqshWCEzEs_r2thPvB-33" value="price" style="ellipse;whiteSpace=wrap;html=1;" parent="1" vertex="1">
          <mxGeometry x="650" y="415" width="80" height="40" as="geometry" />
        </mxCell>
        <mxCell id="nywqshWCEzEs_r2thPvB-39" style="edgeStyle=none;rounded=0;orthogonalLoop=1;jettySize=auto;html=1;exitX=1;exitY=0.5;exitDx=0;exitDy=0;entryX=0.025;entryY=0.325;entryDx=0;entryDy=0;entryPerimeter=0;" parent="1" source="nywqshWCEzEs_r2thPvB-3" target="nywqshWCEzEs_r2thPvB-33" edge="1">
          <mxGeometry relative="1" as="geometry" />
        </mxCell>
        <mxCell id="nywqshWCEzEs_r2thPvB-40" value="name" style="ellipse;whiteSpace=wrap;html=1;" parent="1" vertex="1">
          <mxGeometry x="630" y="586" width="80" height="40" as="geometry" />
        </mxCell>
        <mxCell id="nywqshWCEzEs_r2thPvB-41" value="price" style="ellipse;whiteSpace=wrap;html=1;" parent="1" vertex="1">
          <mxGeometry x="630" y="626" width="80" height="40" as="geometry" />
        </mxCell>
        <mxCell id="nywqshWCEzEs_r2thPvB-49" value="quantity" style="ellipse;whiteSpace=wrap;html=1;" parent="1" vertex="1">
          <mxGeometry x="301" y="691" width="80" height="40" as="geometry" />
        </mxCell>
        <mxCell id="nywqshWCEzEs_r2thPvB-50" value="customer" style="ellipse;whiteSpace=wrap;html=1;" parent="1" vertex="1">
          <mxGeometry x="120" y="300" width="80" height="40" as="geometry" />
        </mxCell>
        <mxCell id="nywqshWCEzEs_r2thPvB-51" value="status" style="ellipse;whiteSpace=wrap;html=1;" parent="1" vertex="1">
          <mxGeometry x="221" y="681" width="80" height="40" as="geometry" />
        </mxCell>
        <mxCell id="nywqshWCEzEs_r2thPvB-52" value="total" style="ellipse;whiteSpace=wrap;html=1;" parent="1" vertex="1">
          <mxGeometry x="171" y="651" width="80" height="40" as="geometry" />
        </mxCell>
        <mxCell id="nywqshWCEzEs_r2thPvB-53" style="edgeStyle=none;rounded=0;orthogonalLoop=1;jettySize=auto;html=1;exitX=0.5;exitY=1;exitDx=0;exitDy=0;entryX=0.263;entryY=0.025;entryDx=0;entryDy=0;entryPerimeter=0;" parent="1" source="nywqshWCEzEs_r2thPvB-6" target="nywqshWCEzEs_r2thPvB-22" edge="1">
          <mxGeometry relative="1" as="geometry" />
        </mxCell>
        <mxCell id="nywqshWCEzEs_r2thPvB-57" value="mobile" style="ellipse;whiteSpace=wrap;html=1;" parent="1" vertex="1">
          <mxGeometry x="101" y="330" width="80" height="40" as="geometry" />
        </mxCell>
        <mxCell id="nywqshWCEzEs_r2thPvB-58" value="discount" style="ellipse;whiteSpace=wrap;html=1;" parent="1" vertex="1">
          <mxGeometry x="81" y="360" width="80" height="40" as="geometry" />
        </mxCell>
        <mxCell id="nywqshWCEzEs_r2thPvB-59" value="tax" style="ellipse;whiteSpace=wrap;html=1;" parent="1" vertex="1">
          <mxGeometry x="71" y="390" width="80" height="40" as="geometry" />
        </mxCell>
        <mxCell id="nywqshWCEzEs_r2thPvB-60" value="total" style="ellipse;whiteSpace=wrap;html=1;" parent="1" vertex="1">
          <mxGeometry x="71" y="421" width="80" height="40" as="geometry" />
        </mxCell>
        <mxCell id="nywqshWCEzEs_r2thPvB-66" style="edgeStyle=none;rounded=0;orthogonalLoop=1;jettySize=auto;html=1;exitX=0.5;exitY=0;exitDx=0;exitDy=0;" parent="1" source="nywqshWCEzEs_r2thPvB-63" target="nywqshWCEzEs_r2thPvB-60" edge="1">
          <mxGeometry relative="1" as="geometry" />
        </mxCell>
        <mxCell id="nywqshWCEzEs_r2thPvB-63" value="date" style="ellipse;whiteSpace=wrap;html=1;" parent="1" vertex="1">
          <mxGeometry x="71" y="450" width="80" height="40" as="geometry" />
        </mxCell>
        <mxCell id="nywqshWCEzEs_r2thPvB-64" value="token" style="ellipse;whiteSpace=wrap;html=1;" parent="1" vertex="1">
          <mxGeometry x="81" y="480" width="80" height="40" as="geometry" />
        </mxCell>
        <mxCell id="nywqshWCEzEs_r2thPvB-65" value="status" style="ellipse;whiteSpace=wrap;html=1;" parent="1" vertex="1">
          <mxGeometry x="110" y="505" width="80" height="40" as="geometry" />
        </mxCell>
        <mxCell id="nywqshWCEzEs_r2thPvB-67" value="method" style="ellipse;whiteSpace=wrap;html=1;" parent="1" vertex="1">
          <mxGeometry x="141" y="533" width="80" height="40" as="geometry" />
        </mxCell>
        <mxCell id="nywqshWCEzEs_r2thPvB-68" value="payment_account" style="ellipse;whiteSpace=wrap;html=1;" parent="1" vertex="1">
          <mxGeometry x="151" y="560" width="120" height="40" as="geometry" />
        </mxCell>
        <mxCell id="nywqshWCEzEs_r2thPvB-78" style="edgeStyle=none;rounded=0;orthogonalLoop=1;jettySize=auto;html=1;exitX=0;exitY=0.5;exitDx=0;exitDy=0;entryX=1.025;entryY=0.325;entryDx=0;entryDy=0;entryPerimeter=0;" parent="1" source="nywqshWCEzEs_r2thPvB-5" target="nywqshWCEzEs_r2thPvB-64" edge="1">
          <mxGeometry relative="1" as="geometry" />
        </mxCell>
        <mxCell id="nywqshWCEzEs_r2thPvB-79" style="edgeStyle=none;rounded=0;orthogonalLoop=1;jettySize=auto;html=1;exitX=0;exitY=0.5;exitDx=0;exitDy=0;entryX=0.938;entryY=0.275;entryDx=0;entryDy=0;entryPerimeter=0;" parent="1" source="nywqshWCEzEs_r2thPvB-5" target="nywqshWCEzEs_r2thPvB-65" edge="1">
          <mxGeometry relative="1" as="geometry" />
        </mxCell>
        <mxCell id="nywqshWCEzEs_r2thPvB-81" style="edgeStyle=none;rounded=0;orthogonalLoop=1;jettySize=auto;html=1;exitX=0;exitY=0.5;exitDx=0;exitDy=0;entryX=0.708;entryY=0.075;entryDx=0;entryDy=0;entryPerimeter=0;" parent="1" source="nywqshWCEzEs_r2thPvB-5" target="nywqshWCEzEs_r2thPvB-68" edge="1">
          <mxGeometry relative="1" as="geometry" />
        </mxCell>
      </root>
    </mxGraphModel>
  </diagram>
</mxfile>
